HIERARCHY
ROOT Hips
{
	OFFSET 0.00000 0.00000 0.00000
	CHANNELS 6 Xposition Yposition Zposition Zrotation Yrotation Xrotation 
	JOINT LHipJoint
	{
		OFFSET 0 0 0
		CHANNELS 3 Zrotation Yrotation Xrotation
		JOINT LeftUpLeg
		{
			OFFSET 1.53139 -1.83434 0.76626
			CHANNELS 3 Zrotation Yrotation Xrotation
			JOINT LeftLeg
			{
				OFFSET 2.56112 -7.03663 0.00000
				CHANNELS 3 Zrotation Yrotation Xrotation
				JOINT LeftFoot
				{
					OFFSET 2.59983 -7.14299 0.00000
					CHANNELS 3 Zrotation Yrotation Xrotation
					JOINT LeftToeBase
					{
						OFFSET 0.13742 -0.37757 2.00054
						CHANNELS 3 Zrotation Yrotation Xrotation
						End Site
						{
							OFFSET 0.00000 -0.00000 1.02897
						}
					}
				}
			}
		}
	}
	JOINT RHipJoint
	{
		OFFSET 0 0 0
		CHANNELS 3 Zrotation Yrotation Xrotation
		JOINT RightUpLeg
		{
			OFFSET -1.40122 -1.83435 0.76627
			CHANNELS 3 Zrotation Yrotation Xrotation
			JOINT RightLeg
			{
				OFFSET -2.54052 -6.98003 0.00000
				CHANNELS 3 Zrotation Yrotation Xrotation
				JOINT RightFoot
				{
					OFFSET -2.63179 -7.23079 0.00000
					CHANNELS 3 Zrotation Yrotation Xrotation
					JOINT RightToeBase
					{
						OFFSET -0.24131 -0.66299 2.03908
						CHANNELS 3 Zrotation Yrotation Xrotation
						End Site
						{
							OFFSET -0.00000 -0.00000 1.07391
						}
					}
				}
			}
		}
	}
	JOINT LowerBack
	{
		OFFSET 0 0 0
		CHANNELS 3 Zrotation Yrotation Xrotation
		JOINT Spine
		{
			OFFSET 0.01174 2.10302 -0.29778
			CHANNELS 3 Zrotation Yrotation Xrotation
			JOINT Spine1
			{
				OFFSET 0.00772 2.13227 -0.01247
				CHANNELS 3 Zrotation Yrotation Xrotation
				JOINT Neck
				{
					OFFSET 0 0 0
					CHANNELS 3 Zrotation Yrotation Xrotation
					JOINT Neck1
					{
						OFFSET -0.09219 1.60848 0.31481
						CHANNELS 3 Zrotation Yrotation Xrotation
						JOINT Head
						{
							OFFSET 0.13974 1.65456 -0.31134
							CHANNELS 3 Zrotation Yrotation Xrotation
							End Site
							{
								OFFSET 0.04742 1.69515 -0.14578
							}
						}
					}
				}
				JOINT LeftShoulder
				{
					OFFSET 0 0 0
					CHANNELS 3 Zrotation Yrotation Xrotation
					JOINT LeftArm
					{
						OFFSET 3.24909 1.02882 -0.23993
						CHANNELS 3 Zrotation Yrotation Xrotation
						JOINT LeftForeArm
						{
							OFFSET 5.32955 -0.00000 -0.00000
							CHANNELS 3 Zrotation Yrotation Xrotation
							JOINT LeftHand
							{
								OFFSET 3.69232 -0.00000 -0.00000
								CHANNELS 3 Zrotation Yrotation Xrotation
								JOINT LeftFingerBase
								{
									OFFSET 0 0 0
									CHANNELS 3 Zrotation Yrotation Xrotation
									JOINT LeftHandIndex1
									{
										OFFSET 0.53660 -0.00000 -0.00000
										CHANNELS 3 Zrotation Yrotation Xrotation
										End Site
										{
											OFFSET 0.43262 -0.00000 -0.00000
										}
									}
								}
								JOINT LThumb
								{
									OFFSET 0 0 0
									CHANNELS 3 Zrotation Yrotation Xrotation
									End Site
									{
										OFFSET 0.43922 -0.00000 0.43922
									}
								}
							}
						}
					}
				}
				JOINT RightShoulder
				{
					OFFSET 0 0 0
					CHANNELS 3 Zrotation Yrotation Xrotation
					JOINT RightArm
					{
						OFFSET -3.21387 0.93002 -0.34594
						CHANNELS 3 Zrotation Yrotation Xrotation
						JOINT RightForeArm
						{
							OFFSET -5.23431 -0.00000 0.00000
							CHANNELS 3 Zrotation Yrotation Xrotation
							JOINT RightHand
							{
								OFFSET -3.55301 -0.00000 -0.00000
								CHANNELS 3 Zrotation Yrotation Xrotation
								JOINT RightFingerBase
								{
									OFFSET 0 0 0
									CHANNELS 3 Zrotation Yrotation Xrotation
									JOINT RightHandIndex1
									{
										OFFSET -0.77252 -0.00000 -0.00000
										CHANNELS 3 Zrotation Yrotation Xrotation
										End Site
										{
											OFFSET -0.62283 -0.00000 -0.00000
										}
									}
								}
								JOINT RThumb
								{
									OFFSET 0 0 0
									CHANNELS 3 Zrotation Yrotation Xrotation
									End Site
									{
										OFFSET -0.63234 -0.00000 0.63234
									}
								}
							}
						}
					}
				}
			}
		}
	}
}
MOTION
Frames: 10
Frame Time: .0083333
-15.2509 17.8739 12.7544 0 0 0 0 0 0 -21 0 0 0 0 0 0 0 0 0 0 0 0 0 0 21 0 0 0 0 0 0 0 0 0 0 0 0 0 0 0 0 0 0 0 0 0 0 -16 0 0 21 0 0 11 0 0 0 -8 0 0 0 0 0 0 0 0 0 0 0 0 0 0 0 0 0 0 0 0 8 0 0 0 0 0 0 0 0 0 0 0 0 0 0 0 0 0
-15.2509 17.8739 12.7544 1.4565 -43.6108 -0.8422 0.0000 0.0000 0.0000 -21.7929 -6.4414 -5.8091 1.4621 7.6420 21.6318 0.3258 -1.1967 -10.4292 0.0069 0.5365 1.4743 0.0000 0.0000 0.0000 22.9417 4.0466 -7.8767 -2.3408 -9.5424 27.5073 -0.7720 4.9290 -15.6713 -0.1847 -2.7683 7.6343 -0.8370 0.9016 6.6117 0.4187 1.1511 -0.4430 0.7864 0.5934 -4.1925 -10.4914 -4.6622 -24.0794 6.1597 -4.7819 29.2125 3.3601 -2.4175 14.5356 -0.0000 0.0000 0.0000 -89.3388 4.0921 22.5675 15.7660 -25.2024 -3.5457 -0.0000 -0.0000 9.5112 17.2105 26.0214 7.7385 -7.1250 0.0000 -0.0000 -13.8421 56.5106 -3.9592 -0.0000 0.0000 0.0000 90.9240 -1.8932 17.8095 -14.7623 23.8139 -3.1293 0.0000 0.0000 10.4143 -14.4479 10.3674 -2.6547 7.1250 -0.0000 -0.0000 8.9118 -19.3487 5.5226
-15.2512 17.8734 12.7536 1.4547 -43.6330 -0.8012 0.0000 0.0000 0.0000 -21.7748 -6.3765 -5.8971 1.4656 7.6508 21.6583 0.3251 -1.2538 -10.4042 0.0052 0.4655 1.2790 0.0000 0.0000 0.0000 22.9419 4.0801 -7.8993 -2.3376 -9.5365 27.4884 -0.7718 4.9366 -15.6680 -0.1919 -2.8210 7.7807 -0.8282 0.9141 6.5557 0.4344 1.1696 -0.4836 0.7963 0.6028 -4.2036 -10.5307 -4.6450 -23.9688 6.1421 -4.7477 29.2005 3.3663 -2.4118 14.5037 0.0000 0.0000 0.0000 -89.4272 4.1923 22.4058 15.8231 -25.2801 -3.5701 -0.0000 -0.0000 9.7123 17.1735 25.9477 7.7010 -7.1250 0.0000 -0.0000 -13.8409 56.4304 -3.9318 0.0000 0.0000 0.0000 90.8659 -2.0597 18.0439 -14.8257 23.9027 -3.1550 0.0000 0.0000 10.1120 -14.5930 10.3409 -2.6757 7.1250 -0.0000 -0.0000 8.8100 -19.3675 5.4543
-15.2504 17.8731 12.7528 1.4866 -43.6210 -0.8140 0.0000 0.0000 0.0000 -21.7935 -6.3332 -5.9228 1.4642 7.6472 21.6476 0.3234 -1.3049 -10.3642 0.0044 0.4293 1.1795 0.0000 0.0000 0.0000 22.9109 4.0540 -7.9358 -2.3424 -9.5455 27.5171 -0.7692 4.9478 -15.6415 -0.1850 -2.7704 7.6402 -0.8567 0.8930 6.5587 0.4156 1.1386 -0.5052 0.7958 0.5881 -4.2273 -10.4090 -4.5884 -23.9190 6.0968 -4.7038 29.1688 3.3349 -2.3859 14.4685 0.0000 0.0000 0.0000 -89.4690 4.2158 22.1986 15.8503 -25.3172 -3.5817 -0.0000 -0.0000 9.8496 17.0302 25.9995 7.6476 -7.1250 0.0000 -0.0000 -14.0171 56.4518 -3.9905 0.0000 0.0000 0.0000 90.8837 -2.1882 18.2472 -14.8885 23.9905 -3.1805 0.0000 0.0000 9.9534 -14.5569 10.4116 -2.6868 7.1250 -0.0000 -0.0000 8.8338 -19.2974 5.4833
-15.2501 17.8727 12.7497 1.5181 -43.5965 -0.8525 0.0000 0.0000 0.0000 -21.8255 -6.2517 -5.9372 1.4643 7.6476 21.6489 0.3224 -1.2748 -10.3541 0.0003 -0.1095 -0.3009 0.0000 0.0000 0.0000 22.8958 4.0701 -7.9337 -2.3461 -9.5526 27.5397 -0.7677 4.9069 -15.6268 -0.1805 -2.7363 7.5455 -0.9425 0.8722 6.6195 0.4342 1.1044 -0.5388 0.8656 0.5738 -4.2978 -10.3246 -4.5452 -23.8873 6.0113 -4.6503 29.1802 3.2958 -2.3665 14.4555 -0.0000 0.0000 0.0000 -89.5353 4.2433 22.0490 15.8471 -25.3129 -3.5803 -0.0000 -0.0000 9.9150 16.7777 26.0817 7.5506 -7.1250 0.0000 -0.0000 -14.3226 56.4804 -4.0900 -0.0000 0.0000 0.0000 90.8578 -2.2688 18.3107 -14.8838 23.9840 -3.1786 0.0000 0.0000 10.0018 -14.2997 10.4027 -2.6352 7.1250 -0.0000 -0.0000 9.0156 -19.3212 5.5942
-15.2498 17.8711 12.7482 1.5175 -43.5899 -0.8446 0.0000 0.0000 0.0000 -21.8434 -6.0955 -5.9831 1.4621 7.6420 21.6317 0.3206 -1.2333 -10.3333 0.0169 -0.8404 -2.3097 0.0000 0.0000 0.0000 22.8928 4.0358 -7.9824 -2.3522 -9.5640 27.5761 -0.7707 4.9476 -15.6566 -0.1824 -2.7509 7.5861 -0.9488 0.8647 6.6128 0.4387 1.0942 -0.5637 0.8747 0.5691 -4.3199 -10.2772 -4.5150 -23.8336 5.9315 -4.6055 29.1972 3.2640 -2.3548 14.4428 0.0000 0.0000 0.0000 -89.5377 4.2668 22.0519 15.8439 -25.3086 -3.5790 -0.0000 -0.0000 9.8439 16.7286 26.2638 7.5758 -7.1250 0.0000 -0.0000 -14.4729 56.6489 -4.1936 0.0000 0.0000 0.0000 90.8722 -2.3426 18.3532 -14.9167 24.0299 -3.1919 0.0000 0.0000 10.0786 -14.1112 9.9977 -2.4990 7.1250 -0.0000 -0.0000 9.1593 -19.7431 5.5982
-15.2493 17.8702 12.7480 1.5487 -43.6120 -0.8724 0.0000 0.0000 0.0000 -21.8771 -5.9910 -5.9935 1.4577 7.6309 21.5986 0.3179 -1.2417 -10.2868 0.0255 -1.0302 -2.8319 0.0000 0.0000 0.0000 22.8569 3.9877 -8.0170 -2.3581 -9.5751 27.6115 -0.7705 5.0291 -15.6516 -0.1834 -2.7582 7.6063 -0.9493 0.8469 6.6086 0.4286 1.0700 -0.5877 0.8668 0.5573 -4.3417 -10.2804 -4.4580 -23.7146 5.9471 -4.5392 29.1651 3.2838 -2.3262 14.3965 -0.0000 -0.0000 0.0000 -89.5139 4.3126 22.0729 15.8536 -25.3218 -3.5831 -0.0000 -0.0000 9.6957 16.6999 26.3083 7.5740 -7.1250 0.0000 -0.0000 -14.5272 56.6866 -4.2231 -0.0000 -0.0000 0.0000 90.9006 -2.4029 18.3860 -14.9088 24.0189 -3.1887 0.0000 0.0000 10.1913 -14.0986 9.8068 -2.4495 7.1250 -0.0000 -0.0000 9.1736 -19.9375 5.5667
-15.2495 17.8710 12.7456 1.6736 -43.6556 -0.9698 0.0000 0.0000 0.0000 -21.9696 -6.1109 -5.9232 1.4524 7.6178 21.5591 0.3185 -1.1860 -10.3107 0.0047 -0.4404 -1.2101 0.0000 0.0000 0.0000 22.7604 3.9951 -8.0239 -2.3629 -9.5842 27.6405 -0.7710 5.0574 -15.6560 -0.1858 -2.7765 7.6571 -1.0480 0.8469 6.5907 0.4038 1.0613 -0.5785 0.8979 0.5549 -4.3231 -10.3260 -4.4304 -23.7246 6.0400 -4.5153 29.2279 3.3367 -2.3095 14.4277 -0.0000 0.0000 0.0000 -89.4962 4.3023 22.0648 15.8449 -25.3099 -3.5794 -0.0000 -0.0000 9.6529 16.6597 26.1440 7.5115 -7.1250 0.0000 -0.0000 -14.4786 56.5172 -4.1488 -0.0000 0.0000 0.0000 90.9317 -2.3510 18.3266 -14.8269 23.9044 -3.1554 0.0000 0.0000 10.3448 -14.2711 10.0970 -2.5533 7.1250 -0.0000 -0.0000 9.0434 -19.6335 5.5480
-15.2507 17.8731 12.7446 1.7032 -43.7144 -0.9865 0.0000 0.0000 0.0000 -21.9794 -6.3290 -5.8174 1.4462 7.6022 21.5121 0.3200 -1.0963 -10.3560 0.0045 0.4343 1.1933 0.0000 0.0000 0.0000 22.7373 4.0456 -8.0274 -2.3670 -9.5920 27.6654 -0.7679 5.0908 -15.6230 -0.2131 -2.9717 8.2000 -1.0602 0.8577 6.5037 0.3757 1.0744 -0.5305 0.8759 0.5606 -4.2243 -10.2895 -4.4103 -23.7626 6.0767 -4.5084 29.2228 3.3469 -2.2963 14.4325 -0.0000 -0.0000 0.0000 -89.4735 4.2245 22.0395 15.8368 -25.2988 -3.5759 -0.0000 -0.0000 9.6497 17.0121 26.0486 7.6523 -7.1250 0.0000 -0.0000 -14.0621 56.4964 -4.0190 -0.0000 -0.0000 0.0000 91.0022 -2.2632 18.2741 -14.7785 23.8366 -3.1359 0.0000 0.0000 10.3823 -14.3474 10.3001 -2.6186 7.1250 -0.0000 -0.0000 8.9844 -19.4228 5.5537
-15.2507 17.8751 12.7437 1.7694 -43.7418 -1.0309 0.0000 0.0000 0.0000 -22.0198 -6.4118 -5.7724 1.4412 7.5896 21.4743 0.3189 -1.0814 -10.3417 0.0207 0.9285 2.5521 0.0000 0.0000 0.0000 22.6845 4.0790 -8.0375 -2.3714 -9.6003 27.6919 -0.7667 5.1052 -15.6103 -0.2166 -2.9959 8.2673 -1.1036 0.8684 6.4765 0.3641 1.0850 -0.5171 0.8877 0.5665 -4.1958 -10.3377 -4.4317 -23.7631 6.1146 -4.5332 29.2220 3.3660 -2.3070 14.4376 0.0000 0.0000 0.0000 -89.5007 4.1983 22.0234 15.8342 -25.2954 -3.5748 -0.0000 -0.0000 9.6492 17.5288 25.9229 7.8616 -7.1250 0.0000 -0.0000 -13.4596 56.4794 -3.8367 0.0000 0.0000 0.0000 91.0007 -2.2200 18.2580 -14.7376 23.7793 -3.1194 0.0000 0.0000 10.2514 -14.2930 10.2301 -2.5907 7.1250 -0.0000 -0.0000 9.0245 -19.4970 5.5640
